<svg width="17" height="17" viewBox="0 0 17 17" fill="none" xmlns="http://www.w3.org/2000/svg">
<g clip-path="url(#clip0_27_8)">
<g clip-path="url(#clip1_27_8)">
<g clip-path="url(#clip2_27_8)">
<path d="M16.8 8.39998C16.8 3.76115 13.0389 0 8.40004 0C3.76121 0 6.10352e-05 3.76115 6.10352e-05 8.39998C6.10352e-05 12.5923 3.07136 16.0676 7.08766 16.6984V10.8287H4.95429V8.39998H7.08766V6.54895C7.08766 4.44393 8.34216 3.28038 10.2605 3.28038C11.1796 3.28038 12.1411 3.44457 12.1411 3.44457V5.51179H11.0815C10.0385 5.51179 9.71243 6.15912 9.71243 6.82418V8.39998H12.0419L11.6698 10.8287H9.71243V16.6984C13.7287 16.0688 16.8 12.5935 16.8 8.39998Z" fill="#191C1F"/>
</g>
</g>
</g>
<defs>
<clipPath id="clip0_27_8">
<rect width="16.8" height="16.8" fill="white"/>
</clipPath>
<clipPath id="clip1_27_8">
<rect width="16.8" height="16.8" fill="white"/>
</clipPath>
<clipPath id="clip2_27_8">
<rect width="16.8" height="16.7016" fill="white"/>
</clipPath>
</defs>
</svg>
