<svg width="17" height="17" viewBox="0 0 17 17" fill="none" xmlns="http://www.w3.org/2000/svg">
<g clip-path="url(#clip0_27_12)">
<g clip-path="url(#clip1_27_12)">
<g clip-path="url(#clip2_27_12)">
<path d="M13.3 0H3.5C1.5673 0 0 1.5673 0 3.5V13.3C0 15.2327 1.5673 16.8 3.5 16.8H13.3C15.2334 16.8 16.8 15.2327 16.8 13.3V3.5C16.8 1.5673 15.2334 0 13.3 0ZM5.6 13.3H3.5V5.6H5.6V13.3ZM4.55 4.7124C3.8738 4.7124 3.325 4.1594 3.325 3.4776C3.325 2.7958 3.8738 2.2428 4.55 2.2428C5.2262 2.2428 5.775 2.7958 5.775 3.4776C5.775 4.1594 5.2269 4.7124 4.55 4.7124ZM14 13.3H11.9V9.3772C11.9 7.0196 9.1 7.1981 9.1 9.3772V13.3H7V5.6H9.1V6.8355C10.0772 5.0253 14 4.8916 14 8.5687V13.3Z" fill="#191C1F"/>
</g>
</g>
</g>
<defs>
<clipPath id="clip0_27_12">
<rect width="16.8" height="16.8" fill="white"/>
</clipPath>
<clipPath id="clip1_27_12">
<rect width="16.8" height="16.8" fill="white"/>
</clipPath>
<clipPath id="clip2_27_12">
<rect width="16.8" height="16.8" fill="white"/>
</clipPath>
</defs>
</svg>
