<svg width="17" height="17" viewBox="0 0 17 17" fill="none" xmlns="http://www.w3.org/2000/svg">
<g clip-path="url(#clip0_27_5)">
<g clip-path="url(#clip1_27_5)">
<path d="M16.8 3.18954C16.1819 3.46394 15.5176 3.64874 14.8204 3.73204C15.5323 3.30574 16.079 2.63024 16.3359 1.82524C15.6702 2.22004 14.9324 2.50704 14.147 2.66174C13.5191 1.99184 12.6224 1.57324 11.6312 1.57324C9.4059 1.57324 7.7707 3.64944 8.2733 5.80474C5.4096 5.66124 2.87 4.28924 1.1697 2.20394C0.2667 3.75304 0.7014 5.77954 2.2358 6.80574C1.6716 6.78754 1.1396 6.63284 0.6755 6.37454C0.6377 7.97124 1.7822 9.46504 3.4398 9.79754C2.9547 9.92914 2.4234 9.95994 1.883 9.85634C2.3212 11.2255 3.5938 12.2216 5.103 12.2496C3.654 13.3857 1.8284 13.8932 0 13.6776C1.5253 14.6555 3.3376 15.226 5.2836 15.226C11.683 15.226 15.2985 9.82134 15.0801 4.97384C15.7535 4.48734 16.338 3.88044 16.8 3.18954Z" fill="#191C1F"/>
</g>
</g>
<defs>
<clipPath id="clip0_27_5">
<rect width="16.8" height="16.8" fill="white"/>
</clipPath>
<clipPath id="clip1_27_5">
<rect width="16.8" height="16.8" fill="white"/>
</clipPath>
</defs>
</svg>
