<svg width="512" height="512" viewBox="0 0 512 512" fill="none" xmlns="http://www.w3.org/2000/svg">
<g clip-path="url(#clip0_24_19)">
<path d="M512 107.275C488.342 73.4883 441.304 64.5843 407.511 88.2423L233.753 209.907L170.57 165.661C194.096 125.043 183.03 72.4823 143.86 45.0583C102.496 16.1043 45.5052 26.1523 16.5392 67.5083C-12.4138 108.866 -2.37382 165.869 38.9912 194.835C67.3752 214.709 103.128 216.199 132.12 201.817L209.508 256.002L132.127 310.181C103.135 295.806 67.3842 297.296 38.9982 317.163C-2.36482 346.129 -12.4058 403.126 16.5462 444.483C45.5122 485.846 102.509 495.894 143.866 466.94C183.031 439.516 194.095 386.955 170.576 346.337L233.759 302.091L407.51 423.749C441.303 447.414 488.341 438.504 511.999 404.716L299.589 256.001L512 107.275ZM91.6272 167.539C65.4542 167.539 44.2352 146.32 44.2352 120.147C44.2352 93.9743 65.4552 72.7553 91.6272 72.7553C117.806 72.7553 139.019 93.9743 139.019 120.147C139.019 146.32 117.806 167.539 91.6272 167.539ZM91.6272 439.253C65.4542 439.253 44.2352 418.034 44.2352 391.861C44.2352 365.688 65.4542 344.469 91.6272 344.469C117.806 344.469 139.019 365.688 139.019 391.861C139.019 418.033 117.806 439.253 91.6272 439.253Z" fill="black"/>
</g>
<defs>
<clipPath id="clip0_24_19">
<rect width="512" height="512" fill="white"/>
</clipPath>
</defs>
</svg>
