<svg width="512" height="512" viewBox="0 0 512 512" fill="none" xmlns="http://www.w3.org/2000/svg">
<path d="M400.534 314.518L302.202 276.436L255.138 319.677L207.412 276.655L109.75 314.517C93.0603 321.385 70.7109 342.998 70.7109 375.069V429.616H131.96V504.747H379.192V429.616H439.572V375.069C439.572 347.451 421.889 323.307 400.534 314.518Z" fill="#DFEBFA"/>
<path d="M102.336 362.459C102.336 340.981 111.64 321.572 126.415 308.058L109.75 314.518C93.0603 321.386 70.7109 342.999 70.7109 375.07V429.617H102.336V362.459Z" fill="#B1DBFC"/>
<path d="M377.191 427.617V504.749H426.563C433.749 504.749 439.572 498.924 439.572 491.74V427.617H377.191Z" fill="#FFBD86"/>
<path d="M409.392 427.617H377.191V504.749H409.392V427.617Z" fill="#F6A96C"/>
<path d="M133.96 427.617H70.7109V491.74C70.7109 498.924 76.5353 504.749 83.7197 504.749H133.959L133.96 427.617Z" fill="#FFBD86"/>
<path d="M102.336 496.64V427.618H70.7109V491.741C70.7109 498.925 76.5353 504.75 83.7197 504.75H105.354C103.479 502.562 102.336 499.731 102.336 496.64Z" fill="#F6A96C"/>
<path d="M207.41 276.655L255.136 319.678L302.2 276.436L299.667 275.455C296.901 274.386 295.062 271.724 295.053 268.742L295.031 242.018C283.849 249.335 270.502 253.607 256.169 253.607C240.364 253.607 226.493 249.225 215.182 241.909V268.698C215.182 274.221 210.254 275.552 208.154 276.366L207.41 276.655Z" fill="#FFBD86"/>
<path d="M250.825 300.686V253.43C237.227 252.559 225.2 248.388 215.183 241.909V268.698C215.183 274.221 210.255 275.552 208.155 276.366L207.41 276.655L247.111 312.442C249.324 309.549 250.825 305.757 250.825 300.686Z" fill="#F6A96C"/>
<path d="M275.782 341.597C279.586 345.356 285.841 344.862 289.008 340.552L328.611 286.664L299.668 275.456C298.906 275.161 298.223 274.737 297.621 274.227L256.246 316.844C254.75 318.385 254.776 320.844 256.303 322.354L275.782 341.597Z" fill="#B1DBFC"/>
<path d="M181.652 286.643L221.272 340.553C224.439 344.862 230.693 345.356 234.498 341.598L253.977 322.354C255.505 320.845 255.53 318.386 254.034 316.844L212.608 274.174C211.082 275.381 209.241 275.946 208.154 276.368L181.652 286.643Z" fill="#B1DBFC"/>
<path d="M183.17 185.406V133.975H174.207C171.933 133.975 169.745 133.611 167.69 132.952C157.425 137.309 149.469 147.891 149.469 159.537C149.469 175.969 164.766 189.441 183.215 187.278C183.199 186.654 183.17 186.032 183.17 185.406Z" fill="#FFBD86"/>
<path d="M183.17 182.722C175.193 177.664 170.001 169.105 170.001 159.537C170.001 149.893 175.464 140.99 183.17 135.735V133.975H174.207C171.933 133.975 169.745 133.611 167.69 132.952C157.425 137.309 149.469 147.891 149.469 159.537C149.469 175.969 164.766 189.441 183.215 187.278C183.199 186.654 183.169 186.032 183.169 185.406V182.722H183.17Z" fill="#F6A96C"/>
<path d="M340.181 131.369C337.967 132.894 335.292 133.793 332.415 133.793C330.557 133.793 328.743 133.594 326.992 133.222V185.398C326.992 186.028 326.961 186.651 326.945 187.278C345.427 189.444 360.807 175.951 360.807 159.441C360.807 146.756 352.391 134.854 340.181 131.369Z" fill="#FFBD86"/>
<path d="M347.525 134.762C345.281 133.294 342.828 132.124 340.182 131.369C337.968 132.895 335.293 133.793 332.416 133.793C330.558 133.793 328.744 133.594 326.993 133.222V185.398C326.993 186.028 326.962 186.651 326.945 187.278C334.64 188.18 341.79 186.36 347.524 182.747V134.762H347.525Z" fill="#F6A96C"/>
<path d="M306.759 106.409C306.759 105.018 304.897 104.538 304.24 105.765C295.777 121.595 279.097 132.369 259.892 132.369H182.922V185.421C182.922 222.627 212.074 256.608 256.169 256.608C295.422 256.608 327.357 224.674 327.357 185.421V131.805C315.63 129.316 306.759 118.849 306.759 106.409Z" fill="#FED2A4"/>
<path d="M223.254 185.422V132.37H182.922V185.422C182.922 222.628 212.074 256.609 256.169 256.609C262.932 256.609 269.468 255.641 275.67 253.87C243.466 245.108 223.254 216.392 223.254 185.422Z" fill="#FFBD86"/>
<path d="M322.734 40.663C315.932 41.186 309.691 36.9088 308.382 30.2144C306.177 18.9387 300.594 7.75 278.789 7.75H203.134C175.369 7.75 152.859 30.2584 152.859 58.025V113.2C152.859 124.891 162.337 134.369 174.028 134.369H259.893C279.098 134.369 295.778 123.594 304.243 107.764C304.899 106.537 306.761 107.016 306.761 108.408C306.761 122.687 318.443 134.37 332.722 134.37C340.207 134.37 346.33 128.246 346.33 120.762V63.1834C346.33 49.6185 334.495 39.7589 322.734 40.663Z" fill="#685E68"/>
<path d="M185.861 113.2V58.025C185.861 30.2594 208.371 7.75 236.136 7.75H203.134C175.369 7.75 152.859 30.2584 152.859 58.025V113.2C152.859 124.891 162.337 134.369 174.028 134.369H207.03C195.339 134.37 185.861 124.892 185.861 113.2Z" fill="#544E55"/>
<path d="M326.47 279.839L304.955 271.378C300.196 269.506 295.047 273.014 295.047 278.128V390.142H331.539V287.279C331.537 283.992 329.527 281.041 326.47 279.839Z" fill="#FFF1AF"/>
<path d="M205.274 271.377L183.76 279.838C180.702 281.04 178.691 283.991 178.691 287.278V390.141H215.184V278.127C215.184 273.014 210.033 269.505 205.274 271.377Z" fill="#FFF1AF"/>
<path d="M348.465 409.297V399.79C348.465 392.804 342.802 387.141 335.815 387.141H174.463C167.476 387.141 161.813 392.804 161.813 399.79V409.876C161.813 432.434 150.629 453.526 131.957 466.183V504.75H348.465H379.189V466.183L379.07 466.104C359.965 453.521 348.465 432.175 348.465 409.297Z" fill="#AB6B51"/>
<path d="M174.96 471.352C174.96 468.243 176.366 465.292 178.81 463.372C195.159 450.533 204.815 430.838 204.815 409.876V399.791C204.815 392.805 210.479 387.142 217.465 387.142H174.463C167.476 387.142 161.813 392.805 161.813 399.791V409.876C161.813 432.434 150.629 453.526 131.957 466.183V504.75H174.96V471.352Z" fill="#965A44"/>
<path d="M281.222 436.49C277.156 436.596 273.266 437.675 269.813 439.601L267.487 437.451L288.779 417.771C291.822 414.959 292.009 410.214 289.196 407.171C286.383 404.129 281.639 403.942 278.597 406.754L256.436 427.237L234.276 406.754C231.234 403.943 226.49 404.13 223.676 407.171C220.864 410.214 221.051 414.959 224.093 417.771L245.386 437.451L243.059 439.601C239.605 437.674 235.715 436.596 231.65 436.49C217.952 436.136 206.581 446.927 206.223 460.625C205.862 474.545 217.012 486.059 231.021 486.059C244.404 486.059 255.431 475.407 255.784 461.917C255.888 457.912 255.039 454.028 253.347 450.521L256.436 447.666L259.526 450.521C257.833 454.029 256.983 457.912 257.087 461.917C257.666 484.083 284.782 494.207 299.846 478.337C314.915 462.464 303.397 435.927 281.222 436.49ZM237.741 468.368C237.741 468.369 237.741 468.369 237.741 468.368C235.845 470.17 233.374 471.12 230.749 471.055C225.332 470.913 221.077 466.414 221.219 461.017C221.359 455.678 225.724 451.484 230.997 451.484C231.084 451.484 231.171 451.485 231.259 451.487C236.675 451.629 240.929 456.128 240.787 461.526C240.719 464.138 239.638 466.569 237.741 468.368ZM282.122 471.054C279.524 471.118 277.026 470.168 275.131 468.368C275.131 468.368 275.13 468.368 275.13 468.367C273.233 466.568 272.151 464.138 272.083 461.524C271.94 456.04 276.334 451.482 281.874 451.482C287.147 451.482 291.513 455.677 291.652 461.015C291.793 466.411 287.541 470.913 282.122 471.054Z" fill="black"/>
<path d="M404.245 307.332C404.196 307.312 404.148 307.293 404.099 307.273L339.093 282.097C337.674 277.828 334.443 274.327 330.071 272.608L308.556 264.146C306.89 263.49 305.146 263.159 303.407 263.129L303.393 248.691C320.565 236.122 332.462 216.775 335.127 194.62C354.721 193.052 369.167 177.471 369.167 159.492C369.167 147.165 362.708 135.606 352.894 128.993C354.04 126.394 354.687 123.528 354.687 120.51V105.811C354.687 101.668 351.33 98.311 347.187 98.311C343.043 98.311 339.686 101.668 339.686 105.811V120.51C339.686 123.914 336.884 126.618 333.581 126.618C323.239 126.62 315.118 118.061 315.118 108.157C315.118 104.093 312.363 100.564 308.421 99.576C304.484 98.587 300.397 100.402 298.484 103.976C291.017 117.942 276.558 126.618 260.749 126.618C251.601 126.618 184.323 126.618 174.884 126.618C167.429 126.618 161.216 120.552 161.216 112.95V57.7745C161.216 34.1901 180.405 15.0009 203.991 15.0009H279.645C297.215 15.0009 300.187 22.7604 301.877 31.4039C303.876 41.6255 313.447 48.735 324.165 47.8909C331.769 47.3279 339.687 53.8913 339.687 62.9318V70.8093C339.687 74.9525 343.044 78.3097 347.188 78.3097C351.331 78.3097 354.688 74.9525 354.688 70.8093V62.9318C354.688 44.8607 339.009 31.6949 323.016 32.935C319.854 33.176 317.148 31.3239 316.599 28.5247C312.847 9.33056 300.76 0 279.645 0H203.991C172.134 0 146.216 25.9176 146.216 57.7745V112.951C146.216 120.868 149.444 128.047 154.651 133.24C147.311 140.04 142.828 149.569 142.828 159.492C142.828 177.448 157.243 193.051 176.862 194.619C179.437 216.241 190.808 235.762 208.541 248.602V263.129C206.8 263.158 205.054 263.49 203.387 264.146L181.874 272.608C177.503 274.326 174.273 277.824 172.852 282.091L107.895 307.275C107.847 307.294 107.799 307.313 107.751 307.333C86.7118 315.991 64.0664 340.804 64.0664 374.82V491.49C64.0664 502.799 73.267 512 84.5756 512H427.418C438.728 512 447.929 502.799 447.929 491.49C447.929 479.258 447.929 387.811 447.929 374.82C447.93 345.669 429.966 317.917 404.245 307.332ZM324.581 286.568C324.771 286.643 324.894 286.824 324.894 287.028V287.548V379.391H303.403C303.403 367.745 303.403 293.984 303.403 278.239L324.581 286.568ZM288.402 329.628L283.822 335.859C283.363 336.485 282.464 336.556 281.912 336.01L264.963 319.265L288.402 295.12V329.628ZM335.716 179.466V141.512C337.653 141.316 339.978 140.73 341.87 139.919C349.135 143.246 354.168 151.053 354.168 159.493C354.167 169.695 345.983 177.883 335.716 179.466ZM157.829 159.492C157.829 152.142 162.412 144.861 169.215 141.054C171.87 141.589 173.718 141.62 176.28 141.62V179.466C165.989 177.882 157.829 169.68 157.829 159.492ZM191.281 185.171V141.62H260.75C276.846 141.62 292.443 134.863 303.468 122.744C306.992 129.99 313.095 135.828 320.715 139.032V185.171C320.715 216.466 297.841 242.923 267.528 247.976C263.873 248.588 260.159 248.857 257.029 248.857C217.637 248.857 191.281 218.166 191.281 185.171ZM288.401 257.317L288.412 268.512C288.417 269.998 288.657 271.464 289.1 272.867L255.998 306.964L222.892 272.863C223.315 271.47 223.542 269.993 223.542 268.447V257.124C242.734 265.374 266.753 266.708 288.401 257.317ZM223.542 295.068L247.034 319.266L230.084 336.011C229.538 336.549 228.638 336.491 228.175 335.86L223.542 329.556V295.068ZM187.05 287.028C187.05 286.824 187.173 286.643 187.363 286.568L208.541 278.239V379.391H187.05V287.54V287.028ZM113.392 321.232L172.048 298.492V379.681C162.492 381.252 155.171 389.548 155.171 399.541V409.627C155.171 424.416 149.787 438.461 140.316 449.343C140.316 442.608 140.316 393.752 140.316 386.891C140.316 382.748 136.959 379.391 132.816 379.391C128.672 379.391 125.315 382.748 125.315 386.891V419.867H79.0683V374.821C79.0683 345.915 99.5686 326.956 113.392 321.232ZM79.0683 491.49V434.867H125.315V465.933V496.998H84.5766C81.5395 496.999 79.0683 494.527 79.0683 491.49ZM140.316 469.78C159.083 455.541 170.172 433.345 170.172 409.627V399.541C170.172 396.701 172.482 394.392 175.321 394.392H238.47C242.613 394.392 245.97 391.035 245.97 386.891C245.97 382.748 242.613 379.391 238.47 379.391H223.542V350.341C229.751 352.645 236.305 350.955 240.627 346.683L255.998 331.498L271.368 346.683C275.687 350.95 282.217 352.631 288.402 350.36V379.391H273.472C269.329 379.391 265.972 382.748 265.972 386.891C265.972 391.035 269.329 394.392 273.472 394.392H336.673C339.513 394.392 341.822 396.702 341.822 399.541V409.048C341.822 433.206 353.243 455.656 372.547 469.852V497H140.316V469.78ZM432.929 491.49C432.929 494.527 430.457 496.999 427.419 496.999H387.549C387.549 490.414 387.549 441.452 387.549 434.867H432.929V491.49ZM432.929 419.866H387.549V386.89C387.549 382.747 384.192 379.39 380.049 379.39C375.905 379.39 372.548 382.747 372.548 386.89V449.759C362.529 438.759 356.824 424.33 356.824 409.047V399.54C356.824 389.529 349.477 381.222 339.895 379.672V298.495L398.604 321.231C415.672 328.293 432.928 348.947 432.928 374.819L432.929 419.866Z" fill="black"/>
</svg>
