<svg width="378" height="378" viewBox="0 0 378 378" fill="none" xmlns="http://www.w3.org/2000/svg">
<g clip-path="url(#clip0_24_101)">
<path d="M354.273 131.125C352.264 127.19 348.937 123.325 345.048 125.322C344.861 125.409 343.95 125.888 342.49 126.624C341.357 127.202 339.98 127.92 338.17 128.854L190.735 204.416C190.899 203.727 190.998 203.062 191.191 202.384C193.947 195.786 235.879 22.1996 235.879 22.1996L234.535 13.8916L172.104 166.768L181.2 188.435L169.984 215.053L54.6332 274.175C50.5002 276.3 48.0712 277.538 47.7732 277.678C43.8852 279.687 45.0702 284.661 47.0782 288.561C49.0872 292.497 69.2942 330.015 72.0562 335.41C78.7292 332.795 79.1262 328.765 76.9722 324.551C74.8062 320.347 60.4262 292.276 60.4262 292.276C60.4262 292.276 61.4192 291.774 63.1992 290.851L66.7372 289.03L85.5962 325.824L90.9152 323.08L72.0572 286.298L76.5182 284.021L95.3882 320.816L100.706 318.084L81.8532 281.301L85.5962 279.373L104.449 316.168L109.773 313.436L90.9142 276.65L95.3872 274.362L114.245 311.144L119.576 308.412L100.717 271.63L105.324 269.248L124.182 306.055L129.501 303.323L110.643 266.516L115.104 264.227L133.828 300.764C133.484 301.442 133.087 302.108 132.766 302.82C124.084 321.468 127.792 342.93 141.758 354.981C144.292 357.188 147.13 359.022 150.166 360.422C160.016 365.024 171.261 364.977 181.805 360.306C192.07 355.776 200.465 347.368 205.463 336.649C212.843 320.768 211.22 302.878 201.971 290.442C201.049 288.656 197.429 281.182 194.065 270.206L196.716 268.852L190.673 257.058C189.599 251.944 188.705 246.467 188.203 240.628L201.433 266.435L206.746 263.714L187.876 226.907L192.349 224.63L211.207 261.425L216.543 258.693L197.685 221.91L201.445 219.972L220.291 256.755L225.628 254.034L206.77 217.239L211.231 214.95L230.101 251.733L235.425 249.012L216.543 212.264L221.156 209.905L240.025 246.699L245.35 243.978L226.492 207.184L230.965 204.907L249.823 241.69L255.135 238.958L236.265 202.164L240.632 199.911L259.491 236.717L264.815 233.996L245.957 197.2L250.429 194.911L269.288 231.694L274.6 228.962L255.753 192.179L260.365 189.809L279.223 226.604L284.548 223.872L265.69 187.083L270.138 184.788L289.009 221.595L294.333 218.874L275.463 182.073L280.181 179.656L299.039 216.444L304.364 213.712L285.493 176.918L289.966 174.635L308.824 211.424L314.161 208.703L295.303 171.908L299.063 169.97L317.91 206.776L323.234 204.044L304.365 167.249L308.837 164.96L327.695 201.743L333.02 199.022L314.162 162.228L318.774 159.857L337.632 196.652L342.956 193.931L324.1 157.129L328.548 154.846L347.406 191.64L352.719 188.896L333.861 152.107L338.532 149.713L357.39 186.508L362.702 183.781L343.844 146.986L346.729 145.503C348.527 144.598 349.519 144.085 349.519 144.085C349.519 144.085 363.906 172.157 366.066 176.355C368.214 180.576 371.707 182.608 377.732 178.714C374.954 173.355 356.293 135.042 354.273 131.125ZM181.873 163.348C184.349 160.487 188.663 160.166 191.53 162.641C194.379 165.117 194.706 169.443 192.231 172.304C189.755 175.159 185.435 175.486 182.568 173.011C179.707 170.535 179.397 166.203 181.873 163.348ZM158.641 241.923L158.367 242.623L158.151 242.19L158.641 241.923ZM152.814 244.912L155.331 249.816L152.779 255.841L148.359 247.224L152.814 244.912ZM143.035 249.945L149.755 263.047L147.63 268.115L139.293 251.872L143.035 249.945ZM133.95 254.592L144.576 275.32L142.042 281.334L129.513 256.87L133.95 254.592ZM124.182 259.614L139.006 288.527L136.863 293.605L120.422 261.529L124.182 259.614ZM193.69 331.218C190.017 339.075 183.939 345.206 176.565 348.464C169.483 351.594 162.062 351.687 155.64 348.698C153.702 347.787 151.874 346.607 150.245 345.206C140.646 336.903 138.287 321.747 144.529 308.342C148.202 300.472 154.274 294.341 161.654 291.083C168.718 287.954 176.157 287.872 182.567 290.85C184.529 291.773 186.333 292.928 187.974 294.341C197.578 302.621 199.937 317.8 193.69 331.218Z" fill="black"/>
<path d="M202.039 181.774L336.677 102.171L327.861 102.329C327.861 102.329 260.063 129.986 209.817 150.771C206.873 162.629 204.188 173.343 202.039 181.774Z" fill="black"/>
<path d="M65.172 244.374C65.231 244.327 65.3 244.281 65.359 244.234C65.289 244.397 65.254 244.503 65.254 244.503L172.14 181.178L172.21 181.19L166.961 168.69C161.392 171.061 157.807 172.648 157.001 173.127C114.922 190.38 70.48 174.815 67.309 173.653C53.869 166.682 36.365 167.639 21.991 176.823C12.018 183.199 4.80797 192.634 1.67897 203.412C-1.55003 214.482 -0.0780334 225.622 5.76597 234.777C7.65797 237.743 9.96397 240.405 12.62 242.693C26.416 254.626 48.048 255.327 65.172 244.374ZM21.085 232.86C19.386 231.389 17.915 229.672 16.706 227.793C12.894 221.814 11.982 214.458 14.149 207.008C16.397 199.278 21.669 192.441 28.973 187.764C41.304 179.882 56.56 180.121 66.066 188.336C67.776 189.808 69.248 191.518 70.468 193.416C74.269 199.372 75.179 206.74 73.025 214.166C70.777 221.907 65.505 228.739 58.189 233.421C45.847 241.315 30.602 241.081 21.085 232.86Z" fill="black"/>
</g>
<defs>
<clipPath id="clip0_24_101">
<rect width="377.733" height="377.733" fill="white"/>
</clipPath>
</defs>
</svg>
