<svg width="512" height="512" viewBox="0 0 512 512" fill="none" xmlns="http://www.w3.org/2000/svg">
<path d="M417.664 145.972C417.664 91.3079 385.084 45.3279 332.628 25.9719C331.254 25.4651 329.768 25.345 328.331 25.6246C326.894 25.9042 325.561 26.5727 324.478 27.5575C323.394 28.5423 322.602 29.8054 322.187 31.2094C321.772 32.6134 321.75 34.1044 322.124 35.5199L323.072 39.0959C288.58 21.6279 207.712 -4.32412 117.972 71.4959C116.923 72.3832 116.12 73.5258 115.641 74.8135C115.162 76.1012 115.022 77.4906 115.236 78.8479C115.428 80.0879 119.816 106.628 138.984 121.184C131.816 135.8 117.716 169.228 126.928 190.04C105.3 215.26 94.3359 231.696 94.3359 238.908C94.3359 248.3 103.336 252.616 109.908 255.764C111.468 256.516 113.82 257.64 115.224 258.532C114.852 259.76 114.252 261.392 113.808 262.612C111.332 269.384 107.94 278.656 111.94 287.012C112.553 288.298 113.317 289.506 114.216 290.612C111.847 293.306 110.286 296.614 109.712 300.156C109.453 302.2 109.658 304.277 110.312 306.231C110.965 308.185 112.051 309.967 113.488 311.444C116.453 314.027 118.66 317.367 119.873 321.108C121.086 324.848 121.26 328.848 120.376 332.68C119.778 335.588 119.851 338.594 120.591 341.469C121.331 344.345 122.717 347.013 124.644 349.272C134.728 361.492 158.128 364.072 175.984 364.072C190.888 364.072 192.76 370.4 195.288 383.568C196.924 392.1 197.84 396.192 202.868 402.264L158.292 460.264C157.208 461.672 156.625 463.401 156.633 465.178C156.641 466.955 157.24 468.679 158.337 470.078C159.433 471.476 160.964 472.47 162.687 472.902C164.411 473.334 166.23 473.18 167.856 472.464L228.42 445.848L248.82 487.488C249.385 488.642 250.219 489.642 251.252 490.406C252.286 491.169 253.488 491.672 254.757 491.872C256.025 492.073 257.324 491.965 258.542 491.558C259.761 491.15 260.863 490.455 261.756 489.532L369.756 377.932C373.719 373.856 376.102 368.502 376.478 362.829C376.854 357.157 375.198 351.535 371.808 346.972L361.836 333.484V299.468C370.048 285.328 417.664 200.9 417.664 145.972ZM190 445.284L212.3 416.26C215.456 421.48 218.576 427.012 221.1 431.62L190 445.284ZM358.264 366.824L258.172 470.252L242.204 437.648L352.404 347.648L358.948 356.5C360.075 358.023 360.625 359.897 360.5 361.787C360.374 363.678 359.582 365.463 358.264 366.824ZM346.964 293.2C346.231 294.435 345.844 295.844 345.844 297.28V332.328L234.7 423.12C228.786 411.702 221.858 400.838 214 390.66C212.384 387.511 211.367 384.089 211 380.568C208.672 368.42 204.772 348.088 175.984 348.088C152.688 348.088 140.564 343.456 136.988 339.12C136.568 338.679 136.265 338.139 136.107 337.551C135.949 336.963 135.941 336.344 136.084 335.752C137.429 329.658 137.214 323.322 135.458 317.333C133.702 311.344 130.463 305.895 126.04 301.492C127.571 299.595 129.396 297.954 131.444 296.632C132.719 295.825 133.74 294.674 134.389 293.312C135.039 291.95 135.289 290.432 135.112 288.933C134.935 287.434 134.338 286.016 133.39 284.843C132.441 283.669 131.18 282.787 129.752 282.3C128.704 281.94 126.872 281.188 126.376 280.152C125.28 277.856 127.42 272.004 128.836 268.128C130.36 264.662 131.282 260.963 131.564 257.188C131.564 248.428 123.044 244.344 116.828 241.364C114.763 240.424 112.759 239.356 110.828 238.164C114.096 231.204 129.228 211.724 142.748 196.2C143.974 194.792 144.669 193 144.713 191.133C144.757 189.267 144.147 187.444 142.988 185.98C134.056 174.696 145.82 143.096 154.416 126.112C172.084 125.1 236.064 120.576 287.336 105.964C340.496 90.8039 369.124 115.848 370.28 116.892C371.842 118.329 373.91 119.087 376.03 118.998C378.151 118.91 380.149 117.983 381.586 116.422C383.023 114.86 383.781 112.792 383.692 110.672C383.604 108.551 382.678 106.553 381.116 105.116C379.676 103.792 345.116 72.8559 282.952 90.5719C231.68 105.2 164.928 109.52 151.528 110.26C139.432 103.06 133.992 88.0559 132.012 80.6599C238.844 -6.40012 327.164 59.4359 330.908 62.3079C332.23 63.3303 333.84 63.9129 335.51 63.9736C337.181 64.0344 338.829 63.5703 340.222 62.6467C341.615 61.723 342.684 60.3861 343.278 58.8237C343.873 57.2614 343.963 55.5521 343.536 53.9359L341.828 47.4679C360.106 56.5351 375.434 70.6067 386.027 88.0451C396.62 105.484 402.042 125.572 401.664 145.972C401.664 200.4 347.512 292.292 346.964 293.2Z" fill="black"/>
<path d="M321.64 204.436C312.599 202.57 303.187 204.098 295.2 208.728C294.286 209.262 293.486 209.972 292.848 210.817C292.21 211.662 291.746 212.625 291.483 213.651C291.22 214.677 291.164 215.745 291.317 216.793C291.47 217.841 291.829 218.848 292.374 219.756C292.919 220.663 293.639 221.454 294.492 222.081C295.345 222.709 296.315 223.161 297.344 223.411C298.373 223.661 299.441 223.704 300.487 223.538C301.533 223.372 302.535 223 303.436 222.444C307.791 220.048 312.819 219.169 317.728 219.944C319.682 220.535 321.495 221.518 323.055 222.835C324.615 224.152 325.889 225.773 326.8 227.6C331.256 235.132 317.056 259.24 298.884 270.092C293.836 273.1 287.264 275.796 284.644 271.46C283.531 269.678 281.762 268.406 279.719 267.918C277.676 267.429 275.523 267.764 273.725 268.85C271.927 269.935 270.627 271.685 270.108 273.72C269.588 275.755 269.89 277.913 270.948 279.728C277.08 289.892 289.984 294.036 307.088 283.828C328.376 271.116 351.816 238.488 340.58 219.46C338.594 215.812 335.893 212.602 332.639 210.021C329.385 207.439 325.644 205.54 321.64 204.436Z" fill="black"/>
</svg>
