<svg width="512" height="512" viewBox="0 0 512 512" fill="none" xmlns="http://www.w3.org/2000/svg">
<path d="M454.777 392.739C452.388 392.459 449.967 392.655 447.654 393.317C445.342 393.978 443.183 395.091 441.304 396.592L392.062 435.707C391.208 436.386 390.228 436.89 389.179 437.189C388.13 437.489 387.033 437.58 385.949 437.455C384.865 437.331 383.817 436.994 382.863 436.465C381.909 435.935 381.069 435.223 380.391 434.368L376.615 429.613L442.899 376.961C443.929 376.134 444.59 374.932 444.737 373.619C444.884 372.306 444.506 370.987 443.684 369.953C442.862 368.918 441.663 368.25 440.351 368.097C439.038 367.943 437.718 368.315 436.679 369.131L370.399 421.782L360.593 409.433L427.133 356.579C427.651 356.172 428.083 355.667 428.405 355.092C428.727 354.517 428.932 353.885 429.009 353.23C429.086 352.576 429.033 351.913 428.852 351.279C428.672 350.646 428.368 350.054 427.958 349.538C427.548 349.022 427.041 348.593 426.464 348.274C425.888 347.955 425.254 347.753 424.6 347.679C423.945 347.606 423.282 347.663 422.649 347.846C422.017 348.03 421.427 348.337 420.913 348.749L354.372 401.6L342.812 387.044L409.022 334.544C409.548 334.141 409.988 333.636 410.317 333.06C410.646 332.485 410.858 331.849 410.939 331.191C411.02 330.533 410.969 329.865 410.79 329.227C410.611 328.589 410.306 327.992 409.894 327.473C409.482 326.953 408.971 326.521 408.39 326.2C407.81 325.88 407.171 325.679 406.512 325.608C405.853 325.537 405.186 325.598 404.55 325.787C403.915 325.976 403.323 326.289 402.81 326.709L336.599 379.215L327.166 367.336L392.188 313.142C393.182 312.286 393.8 311.074 393.908 309.766C394.016 308.459 393.606 307.161 392.766 306.153C391.927 305.146 390.724 304.508 389.419 304.378C388.114 304.249 386.809 304.637 385.788 305.46L320.94 359.5L310.62 346.5L375.65 293.665C376.661 292.824 377.3 291.617 377.428 290.308C377.556 288.998 377.162 287.691 376.332 286.669C375.503 285.648 374.304 284.995 372.996 284.852C371.688 284.709 370.376 285.087 369.345 285.904L304.399 338.674L292.149 323.246L358.318 270.686C359.356 269.862 360.025 268.658 360.176 267.341C360.327 266.023 359.948 264.699 359.123 263.661C358.299 262.622 357.095 261.954 355.777 261.803C354.46 261.652 353.136 262.031 352.098 262.855L285.931 315.415L275.262 301.981L341.431 249.42C342.47 248.595 343.139 247.39 343.291 246.07C343.442 244.751 343.063 243.426 342.237 242.386C341.411 241.347 340.206 240.678 338.887 240.527C337.568 240.376 336.242 240.755 335.203 241.58L269.036 294.139L258.299 280.614L324.988 227.64C325.511 227.235 325.949 226.73 326.275 226.155C326.602 225.579 326.811 224.944 326.89 224.287C326.97 223.63 326.918 222.964 326.738 222.327C326.558 221.69 326.253 221.096 325.842 220.577C325.43 220.059 324.92 219.628 324.34 219.308C323.761 218.989 323.123 218.788 322.466 218.716C321.808 218.645 321.142 218.705 320.508 218.893C319.873 219.081 319.282 219.393 318.769 219.81L252.08 272.783L242.69 260.958L307.742 206.807C308.761 205.959 309.401 204.74 309.522 203.419C309.643 202.098 309.234 200.784 308.385 199.764C307.536 198.745 306.317 198.105 304.997 197.984C303.676 197.864 302.361 198.273 301.342 199.121L236.468 253.121L225.799 239.692L290.851 185.541C291.87 184.693 292.51 183.474 292.631 182.153C292.752 180.832 292.343 179.518 291.494 178.498C290.645 177.479 289.426 176.839 288.105 176.718C286.785 176.598 285.47 177.007 284.451 177.855L219.576 231.855L207.711 216.915L273.88 164.354C274.9 163.524 275.551 162.325 275.693 161.017C275.835 159.709 275.456 158.398 274.637 157.368C273.819 156.338 272.628 155.672 271.322 155.514C270.016 155.356 268.701 155.719 267.661 156.524L201.499 209.088L190.831 195.654L256.999 143.093C258.029 142.266 258.69 141.064 258.837 139.751C258.985 138.438 258.606 137.119 257.784 136.085C256.962 135.05 255.763 134.382 254.451 134.229C253.138 134.075 251.818 134.447 250.779 135.263L184.611 187.823L173.943 174.388L240.111 121.827C240.634 121.422 241.072 120.917 241.398 120.342C241.725 119.766 241.934 119.131 242.013 118.474C242.093 117.817 242.041 117.151 241.861 116.514C241.681 115.877 241.376 115.283 240.965 114.764C240.553 114.246 240.043 113.815 239.463 113.495C238.884 113.176 238.246 112.975 237.589 112.903C236.931 112.832 236.265 112.892 235.631 113.08C234.996 113.268 234.405 113.579 233.892 113.997L167.724 166.557L157.056 153.122L223.225 100.562C224.263 99.7368 224.931 98.5325 225.082 97.2144C225.232 95.8963 224.853 94.5724 224.027 93.5339C223.202 92.4955 221.997 91.8275 220.679 91.677C219.361 91.5265 218.037 91.9058 216.999 92.7314L150.831 145.291L140.163 131.857L206.335 79.3004C206.858 78.8952 207.296 78.3902 207.622 77.8146C207.949 77.239 208.158 76.6043 208.237 75.9473C208.317 75.2903 208.265 74.6241 208.085 73.9873C207.905 73.3504 207.6 72.7557 207.189 72.2374C206.777 71.7192 206.267 71.2879 205.687 70.9684C205.108 70.6489 204.47 70.4477 203.813 70.3763C203.155 70.305 202.489 70.3649 201.855 70.5528C201.22 70.7406 200.629 71.0525 200.116 71.4704L133.948 124.03L123.272 110.586L189.448 58.0354C189.962 57.6271 190.391 57.1214 190.71 56.5473C191.029 55.9731 191.232 55.3418 191.307 54.6893C191.382 54.0368 191.328 53.3759 191.148 52.7443C190.967 52.1127 190.664 51.5229 190.256 51.0084C189.848 50.494 189.342 50.065 188.768 49.746C188.194 49.4269 187.562 49.2241 186.91 49.1491C186.257 49.0741 185.596 49.1283 184.965 49.3087C184.333 49.4891 183.743 49.7921 183.229 50.2004L117.054 102.751L110.454 94.4384C109.086 92.7117 108.458 90.513 108.709 88.3243C108.96 86.1357 110.069 84.1358 111.792 82.7634L161.034 43.6484C162.925 42.156 164.503 40.305 165.678 38.2016C166.852 36.0981 167.6 33.7835 167.878 31.3905C168.156 28.9975 167.96 26.5731 167.299 24.2563C166.639 21.9395 165.527 19.7758 164.029 17.8892C162.531 16.0027 160.675 14.4304 158.568 13.2624C156.461 12.0944 154.144 11.3538 151.75 11.0829C149.356 10.812 146.933 11.0162 144.618 11.6839C142.303 12.3515 140.143 13.4694 138.261 14.9734L47.9208 86.7334C44.1234 89.7571 41.6803 94.1635 41.1272 98.986C40.5742 103.809 41.9565 108.654 44.9708 112.458L348.015 494.077C349.506 495.965 351.356 497.537 353.459 498.705C355.561 499.872 357.875 500.61 360.265 500.877C360.969 500.959 361.678 500.999 362.387 500.999C366.512 501.002 370.515 499.6 373.738 497.024L464.077 425.264C466.912 423.012 469.016 419.97 470.123 416.522C471.229 413.074 471.289 409.375 470.293 405.894C469.298 402.412 467.292 399.304 464.53 396.962C461.769 394.62 458.374 393.149 454.777 392.736V392.739ZM121.399 160.656C120.885 161.065 120.295 161.368 119.664 161.548C119.032 161.729 118.372 161.783 117.719 161.708C117.067 161.634 116.436 161.431 115.862 161.112C115.288 160.793 114.782 160.365 114.374 159.85L103.318 145.927C102.909 145.413 102.606 144.824 102.426 144.192C102.245 143.561 102.191 142.9 102.266 142.248C102.341 141.596 102.543 140.964 102.862 140.39C103.181 139.816 103.61 139.311 104.124 138.902C104.638 138.494 105.228 138.191 105.859 138.011C106.49 137.83 107.151 137.776 107.803 137.851C108.456 137.925 109.087 138.128 109.661 138.447C110.235 138.766 110.74 139.194 111.149 139.708L122.199 153.631C123.024 154.669 123.404 155.992 123.254 157.31C123.104 158.627 122.436 159.831 121.399 160.656ZM234.611 303.233C234.096 303.642 233.507 303.944 232.875 304.125C232.244 304.305 231.583 304.359 230.931 304.283C230.278 304.208 229.647 304.005 229.073 303.686C228.499 303.367 227.994 302.938 227.586 302.423L126.965 175.568C126.557 175.054 126.254 174.464 126.074 173.833C125.894 173.201 125.84 172.541 125.915 171.888C125.991 171.236 126.194 170.605 126.513 170.031C126.832 169.457 127.261 168.952 127.775 168.544C128.29 168.136 128.88 167.833 129.511 167.653C130.142 167.473 130.803 167.419 131.455 167.494C132.108 167.57 132.739 167.773 133.313 168.092C133.886 168.411 134.392 168.84 134.8 169.354L235.421 296.208C235.829 296.723 236.132 297.313 236.312 297.944C236.492 298.576 236.546 299.236 236.471 299.889C236.396 300.541 236.193 301.172 235.874 301.746C235.554 302.32 235.125 302.825 234.611 303.233Z" fill="black"/>
</svg>
