<svg id="aea9fe29-5273-482d-a1c4-d9faafd5dc34" viewBox="0 0 64 64" xmlns="http://www.w3.org/2000/svg" data-name="Line"><path d="m56.757 42.10481-10.28062-2.93727a4.33588 4.33588 0 0 0 -3.68171.56871c-.70328.40447-4.50016 2.53971-5.10908 2.88894a2.449 2.449 0 0 1 -2.52673.16353 32.15665 32.15665 0 0 1 -13.83447-13.95651 2.52523 2.52523 0 0 1 .15818-2.7215c.17485-.2879 2.4746-4.42088 2.719-4.8391a4.40114 4.40114 0 0 0 .62093-3.75448l-2.93868-10.28359a4.43467 4.43467 0 0 0 -4.53891-3.22674c-6.8772.5532-14.82525-.82436-13.09245 9.12966l.11909.63551a.99941.99941 0 0 0 1.96631-.35739c-.47656-2.12029-.478-4.553.418-5.49072 1.06229-1.73369 5.65421-1.5931 7.80586-1.75278l5.33658 18.68646a4.55592 4.55592 0 0 0 -.37808 4.83482 34.13856 34.13856 0 0 0 14.718 14.87131 4.395 4.395 0 0 0 4.50963-.2475l.39632-.22412 12.27535 3.50407a.99969.99969 0 0 0 .54864-1.92239l-10.38041-2.96342 2.26818-1.28258a2.41688 2.41688 0 0 1 2.06492-.33976l10.29042 2.94019a2.423 2.423 0 0 1 1.773 2.49938l-.04924.8519-2.11721-.60587a.99985.99985 0 0 0 -.55065 1.92238l2.54954.72962c-.31544 5.05894.26929 9.68231-6.60721 8.34226a53.73011 53.73011 0 0 1 -44.016-40.51222.99961.99961 0 0 0 -1.93734.49248 57.228 57.228 0 0 0 14.638 26.344c10.16253 10.17278 22.44758 14.122 30.964 15.64408 4.9255 1.02993 8.58784-.91684 8.74184-6.52537l.37991-6.56415a4.40652 4.40652 0 0 0 -3.22291-4.54184zm-40.14916-36.05231.85618-.04961a2.42014 2.42014 0 0 1 2.49547 1.77642l2.94166 10.29384a2.4806 2.4806 0 0 1 -.39151 2.13765l-1.23217 2.19258z"/><path d="m32.76785 12.31334a18.933 18.933 0 0 1 17.77389 12.48283 1.0002 1.0002 0 0 0 1.88432-.67085 20.94072 20.94072 0 0 0 -19.65825-13.8114.99981.99981 0 0 0 .00004 1.99942z"/><path d="m51.47416 28.4861a18.76211 18.76211 0 0 1 .19917 2.73273.99986.99986 0 0 0 1.99951-.00005 20.72278 20.72278 0 0 0 -.22065-3.02557.9998.9998 0 0 0 -1.978.29289z"/><path d="m32.76785 20.284a10.96961 10.96961 0 0 1 10.9347 10.93049.99992.99992 0 0 0 1.9996.00963 12.96691 12.96691 0 0 0 -12.93927-12.9395.99985.99985 0 0 0 .00497 1.99938z"/></svg>