<svg width="512" height="512" viewBox="0 0 512 512" fill="none" xmlns="http://www.w3.org/2000/svg">
<path d="M368.161 178.12C297.443 220.506 161.665 216.2 135.495 143.19C112.463 78.9336 233.211 8.98892 345.6 58.6251C393.769 79.8987 394.045 87.01 426.833 64.4867C429.956 62.3444 434.142 64.9645 433.433 68.6816C420.781 134.891 394.471 162.35 368.161 178.12Z" fill="black"/>
<path d="M119.467 352.874V267.685C119.467 262.869 126.214 261.741 127.82 266.282C131.318 276.173 134.777 285.525 138.412 294.317C133.226 308.636 137.293 327.539 144.708 340.217C150.514 350.145 160.173 357.41 170.323 362.268C180.639 367.204 192.643 370.245 204.834 371.012C208.038 371.214 211.319 371.258 214.64 371.125L225.404 375.106C232.978 378.304 241.583 377.961 248.879 374.17C256.973 369.965 266.653 369.875 274.678 374.342C281.324 378.042 289.227 378.748 296.423 376.285L309.471 371.201C311.572 371.206 313.652 371.141 315.699 371.012C327.891 370.245 339.895 367.204 350.21 362.268C360.36 357.41 370.02 350.145 375.826 340.217C383.245 327.532 386.423 310.434 382.653 296.025C386.024 287.478 388.84 278.742 391.307 269.779C392.68 264.793 401.067 265.695 401.067 270.867V352.034C401.067 383.986 383.216 413.261 354.811 427.892L287.626 462.503C268.946 472.124 246.732 471.962 228.192 462.072L164.632 428.165C136.831 413.331 119.467 384.385 119.467 352.874Z" fill="black"/>
<path d="M187.474 313.499C175.229 311.41 167.591 306.147 163.222 300.467C160.82 297.344 155.075 297.002 154.373 300.803C152.65 310.142 153.575 321.943 159.594 332.013C179.095 364.635 241.211 360.356 260.268 330.275C279.325 360.356 341.442 364.634 360.942 332.013C366.962 321.943 367.887 310.142 366.163 300.803C365.462 297.002 359.717 297.344 357.314 300.467C352.945 306.147 345.308 311.41 333.062 313.499C315.109 316.561 299.088 307.623 284.332 298.64C276.509 293.843 267.351 292.444 260.268 299.723C253.488 292.755 243.899 293.922 236.203 298.641C221.527 307.684 205.36 316.55 187.474 313.499Z" fill="black"/>
<path d="M119.43 148.95C123.528 160.38 129.653 170.26 137.287 178.731C128.239 195.827 122.572 221.392 118.177 247.059C112.123 248.584 106.726 252.597 104.095 258.853C103.389 253.573 102.66 248.233 101.934 242.903C98.2901 216.176 94.6792 189.689 93.9193 172.201C93.0084 151.232 104.192 137.57 115.629 129.733C115.899 136.072 117.121 142.506 119.43 148.95Z" fill="black"/>
<path d="M416.185 157.374C408.865 167.261 401 175.152 392.963 181.627C399.444 200.031 403.046 226.288 405.033 251.311C409.741 253.344 414.482 257.125 416.753 263.053C421.241 237.435 424.154 196.352 416.185 157.374Z" fill="black"/>
</svg>
