<svg width="121" height="113" viewBox="0 0 121 113" fill="none" xmlns="http://www.w3.org/2000/svg">
<path d="M80.4077 2.01691C80.0876 2.79076 80.2931 3.65749 80.8395 4.22568C80.1513 6.36746 79.2424 8.43471 78.1135 10.4273C78.6672 10.5995 79.2095 10.8282 79.7515 11.1305C80.3777 8.93189 81.2358 6.82485 82.263 4.82612C83.0552 4.84084 83.8155 4.36322 84.1358 3.58925C84.5815 2.56129 84.0888 1.37066 83.0721 0.942068C82.027 0.507198 80.8534 0.988952 80.4077 2.01691Z" fill="white"/>
<path d="M11.0401 67.6585C9.89566 67.9986 9.67815 68.558 9.98951 69.8438L50.8888 63.9827C52.5075 61.3246 54.126 58.6662 55.7446 56.0079C40.694 59.4682 25.6992 63.0871 11.0401 67.6585ZM10.3309 69.3981L10.2365 68.9959L49.7944 59.2528L50.5905 63.5683L10.3309 69.3981Z" fill="white"/>
<path d="M66.3344 20.2837C66.1923 25.6589 70.4515 28.7388 68.1263 35.1403C66.1297 40.151 63.7376 45.0072 60.8145 49.6519C50.5613 66.5219 40.3251 83.3805 30.0719 100.251C31.1323 101.042 31.7322 101.061 32.5056 100.159C44.4272 86.1486 55.2835 71.1544 66.1509 56.177C63.9384 48.3469 68.5239 41.3328 71.446 34.3172C72.736 31.7537 74.5588 30.2562 76.6849 29.3657C83.0396 26.807 86.8777 18.6241 81.0729 13.0929C75.6515 7.9198 66.5679 12.085 66.3344 20.2837ZM31.0221 100.356L30.6892 100.112L52.0223 64.9946L55.6787 67.421L31.0221 100.356ZM60.8787 57.0426C61.9676 57.7659 62.2839 59.2442 61.5604 60.3332C60.8371 61.4221 59.3646 61.7101 58.2754 60.9868C57.1865 60.2635 56.8814 58.8022 57.6048 57.713C58.3284 56.6241 59.8009 56.3362 60.8787 57.0426ZM77.2347 13.4269C87.5831 16.3973 77.8848 33.2188 70.3553 26.1127C65.2099 21.2464 70.3903 11.4678 77.2347 13.4269Z" fill="white"/>
<path d="M67.2762 56.3638L66.9858 56.7757C65.6707 58.5978 64.3273 60.4142 63.0122 62.2363L68.5953 61.4342C74.0145 60.5691 79.4201 60.2757 84.8123 60.4066C91.6127 60.7812 92.7731 65.9075 97.7726 67.8871C105.416 70.9082 112.813 64.189 110.184 57.172C107.364 49.6449 98.3313 49.9622 93.4945 54.8192C91.8297 56.4078 89.7481 57.5138 86.8726 57.6766C80.1784 57.6477 72.9868 58.7539 67.0363 55.5196C67.0696 55.6443 67.1031 55.7689 67.1365 55.8935L67.2762 56.3638ZM108.37 60.5706C107.473 67.6176 96.4571 68.5602 93.9904 61.9005C90.4108 52.1858 109.7 49.8869 108.37 60.5706Z" fill="white"/>
<path d="M58.3501 59.6928L60.9613 59.1664C61.1934 59.111 61.3245 58.902 61.2971 58.6756C61.2416 58.4434 61.0327 58.3123 60.8005 58.3678L58.2064 58.8828C57.9741 58.9384 57.8319 59.1302 57.8705 59.3735C57.9147 59.5891 58.135 59.7372 58.3501 59.6928Z" fill="white"/>
</svg>
