<svg width="155" height="155" viewBox="0 0 155 155" fill="none" xmlns="http://www.w3.org/2000/svg">
<g clip-path="url(#clip0_26_590)">
<path d="M61.4494 132.876C61.7123 132.081 61.4441 131.231 60.8577 130.704C61.3879 128.518 62.1436 126.39 63.1242 124.32C62.5594 124.189 62.0019 124 61.4392 123.738C60.9751 125.977 60.2729 128.141 59.3942 130.209C58.6031 130.252 57.8796 130.784 57.6166 131.579C57.2471 132.637 57.8253 133.789 58.8705 134.142C59.9446 134.499 61.0799 133.933 61.4494 132.876Z" fill="#141515"/>
<path d="M125.845 62.3477C126.961 61.925 127.138 61.3513 126.733 60.0915L86.3703 68.9198C84.9498 71.6889 83.5294 74.4582 82.109 77.2276C96.8672 72.6788 111.558 67.976 125.845 62.3477ZM126.425 60.561L126.549 60.9552L87.8068 73.5573L86.698 69.3114L126.425 60.561Z" fill="#141515"/>
<path d="M74.1535 113.629C73.9032 108.258 69.4307 105.496 71.2829 98.9425C72.9087 93.7995 74.9403 88.7817 77.5168 83.9362C86.5124 66.3634 95.4919 48.8032 104.487 31.2303C103.372 30.5186 102.772 30.5428 102.067 31.4988C91.1989 46.3416 81.465 62.0876 71.7188 77.8177C74.4964 85.4655 70.4347 92.7954 68.0321 100.005C66.9324 102.656 65.2237 104.283 63.1682 105.326C57.017 108.341 53.786 116.782 59.9787 121.875C65.7629 126.639 74.5185 121.823 74.1535 113.629ZM103.532 31.1941L103.882 31.4139L85.1667 67.9932L81.3431 65.8399L103.532 31.1941ZM76.9139 76.5699C75.7751 75.928 75.3518 74.4766 75.9939 73.3377C76.6359 72.199 78.0835 71.8044 79.2226 72.4464C80.3613 73.0883 80.7721 74.5235 80.1301 75.6625C79.4879 76.8012 78.0403 77.1958 76.9139 76.5699ZM63.7823 121.262C53.2448 119.054 61.6905 101.571 69.7182 108.109C75.2048 112.587 70.7514 122.717 63.7823 121.262Z" fill="#141515"/>
<path d="M70.5834 77.7154L70.843 77.2835C72.0217 75.3703 73.2291 73.4608 74.4077 71.5476L68.8981 72.7547C63.5564 74.0128 58.1866 74.6996 52.7992 74.9623C45.9896 75.0847 44.4584 70.0567 39.3278 68.447C31.4844 65.9914 24.5972 73.2321 27.7314 80.0387C31.0922 87.3401 40.0779 86.3649 44.5475 81.168C46.092 79.4623 48.0875 78.2074 50.9435 77.8354C57.622 77.376 64.7137 75.7482 70.8842 78.5399C70.8419 78.418 70.7995 78.2962 70.757 78.1744L70.5834 77.7154ZM29.2927 76.5168C29.6725 69.4232 40.5907 67.6797 43.5366 74.1418C47.8151 83.5695 28.7446 87.2691 29.2927 76.5168Z" fill="#141515"/>
<path d="M79.2439 73.7438L76.6781 74.4592C76.4506 74.5314 76.3351 74.7494 76.379 74.9732C76.4512 75.2007 76.6692 75.3162 76.8967 75.244L79.4463 74.5411C79.674 74.4687 79.8018 74.2671 79.7456 74.0272C79.6857 73.8154 79.4553 73.6837 79.2439 73.7438Z" fill="#141515"/>
</g>
<defs>
<clipPath id="clip0_26_590">
<rect width="110.323" height="110.323" fill="white" transform="translate(87.3789) rotate(52.3755)"/>
</clipPath>
</defs>
</svg>
