<svg width="156" height="156" viewBox="0 0 156 156" fill="none" xmlns="http://www.w3.org/2000/svg">
<g clip-path="url(#clip0_26_601)">
<path d="M21.5408 64.5535C22.3478 64.7775 23.1832 64.4685 23.681 63.8572C25.8904 64.2808 28.0525 64.9325 30.1672 65.8116C30.271 65.2411 30.4324 64.675 30.6668 64.1003C28.4085 63.7453 26.213 63.1489 24.1045 62.3714C24.0231 61.5833 23.4568 60.8865 22.6497 60.6623C21.5753 60.3445 20.4532 60.9779 20.151 62.039C19.846 63.1291 20.4664 64.2357 21.5408 64.5535Z" fill="#141515"/>
<path d="M95.1065 125.455C95.5828 126.549 96.1644 126.697 97.4031 126.233L86.6284 86.3451C83.7937 85.0605 80.9588 83.776 78.1239 82.4916C83.3827 97.0119 88.7922 111.458 95.1065 125.455ZM96.9193 125.948L96.5315 126.09L82.066 88.0047L86.2532 86.6914L96.9193 125.948Z" fill="#141515"/>
<path d="M41.3803 76.3093C46.7331 75.799 49.2741 71.1979 55.9102 72.7302C61.1259 74.1047 66.2363 75.8907 71.201 78.2293C89.1893 86.3624 107.164 94.48 125.152 102.613C125.809 101.465 125.756 100.867 124.767 100.208C109.415 90.0727 93.2153 81.1136 77.0312 72.1415C69.5271 75.2866 62.0089 71.585 54.6909 69.5347C51.9899 68.5649 50.2826 66.9369 49.1409 64.9345C45.831 58.9367 37.2432 56.1187 32.4563 62.551C27.9783 68.5593 33.2138 77.0712 41.3803 76.3093ZM125.142 101.657L124.94 102.017L87.4962 85.0973L89.4616 81.1737L125.142 101.657ZM78.5294 77.2699C79.1154 76.1014 80.5445 75.6082 81.7132 76.1944C82.8817 76.7804 83.346 78.2072 82.76 79.376C82.174 80.5446 80.7605 81.0244 79.5917 80.4384C78.4231 79.8521 77.9588 78.4253 78.5294 77.2699ZM33.253 66.3204C34.9473 55.6883 52.8202 63.2765 46.679 71.6116C42.4722 77.3089 32.1379 73.3518 33.253 66.3204Z" fill="#141515"/>
<path d="M77.0805 71.0025L77.5245 71.2408C79.4926 72.3254 81.4583 73.4388 83.4264 74.5233L81.9536 69.0787C80.4381 63.8042 79.4918 58.474 78.9682 53.1057C78.5158 46.3101 83.4637 44.5369 84.8228 39.3343C86.8953 31.3811 79.3292 24.853 72.6826 28.3135C65.5527 32.0243 66.9623 40.9522 72.3697 45.1646C74.1484 46.6246 75.4985 48.5569 76.0086 51.3915C76.7912 58.0399 78.7608 65.0443 76.2716 71.3429C76.3913 71.2948 76.5109 71.2465 76.6305 71.1982L77.0805 71.0025ZM76.276 29.7022C83.3797 29.7377 85.6504 40.5586 79.3388 43.8142C70.1295 48.5448 65.5097 29.676 76.276 29.7022Z" fill="#141515"/>
<path d="M81.4644 79.4597L80.6255 76.9316C80.5423 76.7078 80.319 76.603 80.0975 76.6577C79.8738 76.7409 79.769 76.9642 79.8522 77.1879L80.6778 79.7005C80.7612 79.9244 80.9687 80.0423 81.2056 79.9745C81.4142 79.9044 81.5346 79.6679 81.4644 79.4597Z" fill="#141515"/>
</g>
<defs>
<clipPath id="clip0_26_601">
<rect width="110.323" height="110.323" fill="white" transform="translate(155.518 84.0111) rotate(139.597)"/>
</clipPath>
</defs>
</svg>
